<svg width="12" height="12" viewBox="0 0 12 12" fill="none" xmlns="http://www.w3.org/2000/svg">
<path fill-rule="evenodd" clip-rule="evenodd" d="M3.9 0H1.5C0.671573 0 0 0.671573 0 1.5V3.9C0 4.72843 0.671573 5.4 1.5 5.4H3.9C4.72843 5.4 5.4 4.72843 5.4 3.9V1.5C5.4 0.671573 4.72843 0 3.9 0ZM1.2 1.5C1.2 1.33431 1.33431 1.2 1.5 1.2H3.9C4.06569 1.2 4.2 1.33431 4.2 1.5V3.9C4.2 4.06569 4.06569 4.2 3.9 4.2H1.5C1.33431 4.2 1.2 4.06569 1.2 3.9V1.5ZM3.9 6.6H1.5C0.671573 6.6 0 7.27157 0 8.1V10.5C0 11.3284 0.671573 12 1.5 12H3.9C4.72843 12 5.4 11.3284 5.4 10.5V8.1C5.4 7.27157 4.72843 6.6 3.9 6.6ZM1.2 8.1C1.2 7.93432 1.33431 7.8 1.5 7.8H3.9C4.06569 7.8 4.2 7.93432 4.2 8.1V10.5C4.2 10.6657 4.06569 10.8 3.9 10.8H1.5C1.33431 10.8 1.2 10.6657 1.2 10.5V8.1ZM8.1 6.6H10.5C11.3284 6.6 12 7.27157 12 8.1V10.5C12 11.3284 11.3284 12 10.5 12H8.1C7.27157 12 6.6 11.3284 6.6 10.5V8.1C6.6 7.27157 7.27157 6.6 8.1 6.6ZM8.1 7.8C7.93432 7.8 7.8 7.93432 7.8 8.1V10.5C7.8 10.6657 7.93432 10.8 8.1 10.8H10.5C10.6657 10.8 10.8 10.6657 10.8 10.5V8.1C10.8 7.93432 10.6657 7.8 10.5 7.8H8.1ZM10.5 0H8.1C7.27157 0 6.6 0.671573 6.6 1.5V3.9C6.6 4.72843 7.27157 5.4 8.1 5.4H10.5C11.3284 5.4 12 4.72843 12 3.9V1.5C12 0.671573 11.3284 0 10.5 0ZM7.8 1.5C7.8 1.33431 7.93432 1.2 8.1 1.2H10.5C10.6657 1.2 10.8 1.33431 10.8 1.5V3.9C10.8 4.06569 10.6657 4.2 10.5 4.2H8.1C7.93432 4.2 7.8 4.06569 7.8 3.9V1.5Z" fill="#838383"/>
</svg>
