<svg width="11" height="11" viewBox="0 0 11 11" fill="none" xmlns="http://www.w3.org/2000/svg">
<path fill-rule="evenodd" clip-rule="evenodd" d="M7.2778 9.77778C7.2778 10.4528 6.73059 11 6.05558 11L4.94447 11C4.62031 11 4.30944 10.8712 4.08022 10.642C3.85101 10.4128 3.72224 10.1019 3.72224 9.77778L3.72224 5.40054L0.364524 2.09294C0.011161 1.74485 -0.0967854 1.21772 0.0913067 0.758747C0.2794 0.299778 0.726229 -5.55075e-08 1.22224 8.54804e-07L9.7778 1.06853e-07C10.2738 6.34903e-08 10.7206 0.299777 10.9087 0.758746C11.0968 1.21772 10.9889 1.74485 10.6355 2.09294L7.2778 5.40054L7.2778 9.77778ZM4.8598 4.83438C4.91475 4.9276 4.94447 5.03461 4.94447 5.14472L4.94447 9.77778L6.05558 9.77778L6.05558 5.14472C6.05558 5.03461 6.08529 4.9276 6.14024 4.83438C6.16697 4.78903 6.19967 4.74695 6.23783 4.70936L9.7778 1.22222L1.22224 1.22222L4.76222 4.70936C4.80037 4.74695 4.83307 4.78903 4.8598 4.83438Z" fill="#838383"/>
</svg>
