<svg width="12" height="12" viewBox="0 0 12 12" fill="none" xmlns="http://www.w3.org/2000/svg">
<path fill-rule="evenodd" clip-rule="evenodd" d="M-5.24537e-08 10.8C-2.34843e-08 11.4627 0.537258 12 1.2 12L10.8 12C11.4627 12 12 11.4627 12 10.8L12 7.8C12 7.13726 11.4627 6.6 10.8 6.6L1.2 6.6C0.537259 6.6 -2.12557e-07 7.13726 -1.83588e-07 7.8L-5.24537e-08 10.8ZM1.2 10.8L1.2 7.8L10.8 7.8L10.8 10.8L1.2 10.8ZM-3.40949e-07 4.2C-3.11979e-07 4.86274 0.537258 5.4 1.2 5.4L10.8 5.4C11.4627 5.4 12 4.86274 12 4.2L12 1.2C12 0.53726 11.4627 4.52622e-07 10.8 4.81591e-07L1.2 9.01221e-07C0.537258 9.3019e-07 -5.01052e-07 0.537258 -4.72083e-07 1.2L-3.40949e-07 4.2ZM1.2 4.2L1.2 1.2L10.8 1.2L10.8 4.2L1.2 4.2Z" fill="#D7D7D7"/>
</svg>
