<svg width="10" height="10" viewBox="0 0 10 10" fill="none" xmlns="http://www.w3.org/2000/svg">
<path fill-rule="evenodd" clip-rule="evenodd" d="M0 5C0 7.76142 2.23858 10 5 10C7.76142 10 10 7.76142 10 5C10 2.23858 7.76142 0 5 0C2.23858 0 0 2.23858 0 5ZM1 5C1 2.79086 2.79086 1 5 1C7.20914 1 9 2.79086 9 5C9 7.20914 7.20914 9 5 9C2.79086 9 1 7.20914 1 5ZM2.87868 5.5C2.60254 5.5 2.37868 5.27614 2.37868 5C2.37868 4.72386 2.60254 4.5 2.87868 4.5H7.12132C7.39746 4.5 7.62132 4.72386 7.62132 5C7.62132 5.27614 7.39746 5.5 7.12132 5.5H2.87868Z" fill="#2D2E38"/>
</svg>
