<svg width="10" height="10" viewBox="0 0 10 10" fill="none" xmlns="http://www.w3.org/2000/svg">
<path fill-rule="evenodd" clip-rule="evenodd" d="M5 10C2.23858 10 0 7.76142 0 5C0 2.23858 2.23858 0 5 0C7.76142 0 10 2.23858 10 5C10 7.76142 7.76142 10 5 10ZM5 1C2.79086 1 1 2.79086 1 5C1 7.20914 2.79086 9 5 9C7.20914 9 9 7.20914 9 5C9 2.79086 7.20914 1 5 1ZM5.00023 2.37868C5.27637 2.37868 5.50023 2.60254 5.50023 2.87868V4.5H7.12132C7.39746 4.5 7.62132 4.72386 7.62132 5C7.62132 5.27614 7.39746 5.5 7.12132 5.5H5.50023V7.12132C5.50023 7.39746 5.27637 7.62132 5.00023 7.62132C4.72408 7.62132 4.50023 7.39746 4.50023 7.12132V5.5H2.87868C2.60254 5.5 2.37868 5.27614 2.37868 5C2.37868 4.72386 2.60254 4.5 2.87868 4.5H4.50023V2.87868C4.50023 2.60254 4.72408 2.37868 5.00023 2.37868Z" fill="#2D2E38"/>
</svg>
