<svg width="27" height="25" viewBox="0 0 27 25" fill="none" xmlns="http://www.w3.org/2000/svg">
<path fill-rule="evenodd" clip-rule="evenodd" d="M12.7857 0C10.6981 0 7.72797 0.80981 5.25456 2.59066C2.73076 4.4078 0.642853 7.306 0.642853 11.4286C0.642853 13.9061 1.47265 15.7844 2.31135 17.0424C2.67333 17.5854 3.03723 18.0137 3.33816 18.3286L2.11408 23.2249C1.97877 23.7662 2.17091 24.3367 2.6061 24.6858C3.04128 25.0349 3.63987 25.0987 4.13887 24.8492L9.29407 22.2716C12.2142 23.2499 16.215 22.9164 19.5428 21.3874C23.1912 19.7111 26.3571 16.4314 26.3571 11.4286C26.3571 6.91842 24.0568 3.99205 21.2057 2.26102C18.4257 0.573162 15.1149 0 12.7857 0ZM6.31448 18.2036C6.45305 17.6493 6.24801 17.0662 5.79395 16.7205L5.7889 16.7165C5.78005 16.7094 5.76181 16.6946 5.7355 16.672C5.68278 16.6269 5.59826 16.5512 5.49229 16.4452C5.27963 16.2325 4.98541 15.9027 4.68864 15.4576C4.09876 14.5728 3.49999 13.2367 3.49999 11.4286C3.49999 8.40828 4.98351 6.30648 6.924 4.90933C8.91488 3.4759 11.3019 2.85714 12.7857 2.85714C14.7422 2.85714 17.5029 3.35541 19.7229 4.70327C21.8718 6.00794 23.5 8.08157 23.5 11.4286C23.5 14.9972 21.3088 17.4317 18.35 18.7912C15.322 20.1824 11.8226 20.2779 9.77702 19.4012C9.39078 19.2357 8.95125 19.2486 8.5754 19.4365L5.63923 20.9046L6.31448 18.2036ZM10.0593 5.80631C10.6233 5.56185 11.1812 5.83669 11.4274 6.25184L12.5619 8.16528C12.7913 8.55211 12.7815 9.1116 12.3605 9.48764C12.1802 9.64879 11.9305 9.84637 11.6981 10.0302L11.6981 10.0302L11.698 10.0303C11.5705 10.1312 11.4481 10.228 11.3454 10.3124C12.4154 12.3004 13.9282 13.2379 14.6202 13.5831L15.4547 12.6232C15.8488 12.1699 16.5163 12.074 17.0063 12.385C17.4596 12.6727 18.0868 13.0602 18.6564 13.3846C19.0362 13.601 19.2943 14.0427 19.1916 14.5345C19.0073 15.4179 18.6057 16.0566 18.0566 16.4828C17.5166 16.9018 16.8891 17.0727 16.3193 17.1243C15.1985 17.2259 14.1478 16.8796 13.9561 16.8129C13.9075 16.796 13.8674 16.7784 13.8245 16.756C13.6203 16.6492 12.4181 16.0042 11.1451 14.9565C9.88532 13.9198 8.48007 12.4274 7.98123 10.609C7.61481 9.2733 7.79353 8.19858 8.26717 7.37816C8.7325 6.57211 9.44759 6.07145 10.0593 5.80631Z" fill="#F2F5FA"/>
</svg>
